<?xml version="1.0" standalone="no"?>
<!DOCTYPE svg PUBLIC "-//W3C//DTD SVG 20010904//EN"
 "http://www.w3.org/TR/2001/REC-SVG-20010904/DTD/svg10.dtd">
<svg version="1.0" xmlns="http://www.w3.org/2000/svg"
 width="4320.000000pt" height="4320.000000pt" viewBox="0 0 4320.000000 4320.000000"
 preserveAspectRatio="xMidYMid meet">
<metadata>
Created by potrace 1.14, written by Peter Selinger 2001-2017
</metadata>
<g transform="translate(0.000000,4320.000000) scale(0.100000,-0.100000)"
fill="#000000" stroke="none">
<path d="M7410 36631 c-115 -36 -186 -122 -256 -308 -44 -117 -102 -367 -129
-558 -4 -22 -12 -80 -20 -130 -7 -49 -16 -121 -20 -160 -3 -38 -10 -101 -15
-140 -4 -38 -8 -77 -8 -85 0 -8 -3 -44 -6 -80 -10 -98 -15 -164 -21 -285 -4
-60 -8 -132 -10 -158 -2 -27 -7 -135 -11 -240 -3 -106 -8 -223 -10 -262 -4
-97 -4 -1241 1 -1400 9 -295 17 -554 20 -625 11 -278 17 -391 20 -435 2 -27 7
-106 10 -175 4 -69 8 -143 10 -165 2 -22 6 -92 10 -155 4 -63 8 -133 10 -155
3 -22 7 -74 10 -115 3 -41 7 -97 10 -125 2 -27 7 -84 10 -125 3 -41 8 -93 10
-115 2 -22 6 -67 9 -100 14 -154 30 -316 41 -405 9 -70 24 -206 30 -265 4 -33
8 -67 11 -75 2 -8 6 -38 9 -65 3 -28 8 -61 10 -75 2 -14 7 -45 10 -70 3 -25
10 -71 16 -102 12 -76 15 -95 23 -148 19 -118 90 -457 118 -555 47 -169 102
-295 150 -345 l41 -42 61 5 c267 22 809 393 1451 993 343 320 642 641 668 715
3 10 -7 43 -22 75 -48 100 -102 186 -476 754 -321 488 -380 592 -370 649 21
115 205 291 303 291 22 0 42 -14 85 -57 90 -93 154 -178 467 -613 356 -495
450 -610 499 -610 30 0 154 66 226 120 136 102 245 226 245 277 0 41 -110 188
-329 438 -58 66 -110 125 -115 131 -6 6 -70 78 -142 160 -292 331 -404 476
-404 524 0 100 263 310 388 310 32 0 100 -69 224 -226 84 -108 123 -159 397
-535 281 -384 459 -599 495 -599 61 0 613 362 1036 679 334 251 503 392 515
431 28 89 -208 431 -570 828 -27 30 -58 64 -68 75 -149 172 -699 722 -1022
1023 -186 173 -174 162 -359 329 -6 6 -49 44 -96 85 -46 41 -90 80 -96 85 -6
6 -39 35 -74 65 -35 30 -68 60 -74 65 -29 27 -350 298 -421 355 -44 35 -82 67
-85 70 -10 10 -147 119 -311 246 -810 628 -1432 998 -1834 1092 -83 20 -231
27 -275 13z"/>
<path d="M35520 36621 c-503 -120 -1325 -649 -2395 -1541 -110 -92 -207 -173
-215 -181 -8 -8 -87 -77 -175 -154 -88 -76 -203 -177 -255 -224 -52 -48 -100
-90 -106 -96 -30 -26 -260 -240 -349 -325 -170 -161 -755 -749 -870 -875 -96
-104 -160 -176 -246 -275 -155 -179 -336 -430 -383 -530 -42 -90 -37 -113 40
-187 151 -146 649 -520 1039 -779 324 -216 429 -273 464 -255 52 28 194 203
491 606 101 138 215 293 254 345 63 86 90 121 189 245 73 92 143 155 170 155
100 0 317 -154 376 -267 29 -56 6 -96 -183 -323 -74 -88 -187 -217 -262 -300
-54 -60 -206 -232 -264 -299 -30 -35 -60 -69 -65 -75 -35 -37 -153 -188 -177
-225 -35 -57 -35 -86 1 -142 83 -130 376 -342 448 -325 55 14 138 118 585 736
300 414 407 540 457 540 102 0 278 -171 305 -295 11 -53 -71 -193 -438 -747
-318 -478 -436 -672 -436 -713 0 -67 504 -593 900 -939 400 -349 708 -574 941
-689 134 -66 191 -85 269 -94 70 -7 95 7 140 77 73 114 164 427 225 780 11 64
73 464 79 510 3 25 8 63 10 85 3 22 10 76 15 120 6 44 13 105 16 135 4 30 8
66 10 80 2 14 6 57 10 95 3 39 8 81 10 95 2 14 7 59 10 100 3 41 7 89 9 105 2
17 7 66 10 110 4 44 9 100 11 125 4 43 9 112 20 260 11 135 14 188 20 275 4
50 8 113 10 140 2 28 7 106 10 175 4 69 8 151 10 183 2 32 7 129 10 215 4 86
8 189 10 227 27 495 27 1947 0 2375 -2 36 -7 115 -10 175 -3 61 -8 137 -10
170 -12 157 -16 213 -20 250 -2 22 -7 67 -10 100 -3 33 -7 76 -10 95 -2 19 -7
56 -10 83 -11 99 -17 145 -31 232 -50 320 -101 510 -174 660 -50 102 -89 149
-154 182 -44 23 -65 27 -151 30 -70 1 -123 -3 -175 -16z"/>
<path d="M21139 33857 c-2 -3 -83 -7 -179 -11 -96 -4 -200 -8 -230 -11 -30 -2
-102 -6 -160 -9 -58 -4 -127 -9 -155 -11 -136 -12 -165 -15 -230 -20 -104 -9
-303 -32 -555 -65 -204 -28 -221 -30 -250 -35 -14 -3 -38 -7 -55 -9 -450 -70
-672 -115 -1169 -232 -905 -214 -1846 -540 -2716 -940 -200 -92 -814 -403
-915 -464 -16 -9 -57 -32 -90 -50 -440 -238 -974 -581 -1490 -956 -256 -187
-397 -293 -525 -399 -20 -16 -56 -46 -80 -65 -113 -90 -375 -313 -466 -395 -6
-5 -46 -41 -90 -80 -334 -298 -821 -782 -1101 -1095 -62 -69 -263 -299 -310
-355 -23 -28 -50 -60 -61 -73 -11 -13 -35 -42 -54 -64 -18 -23 -72 -89 -119
-147 -729 -898 -1407 -1991 -1901 -3066 -267 -579 -526 -1256 -693 -1810 -20
-66 -49 -163 -65 -215 -171 -566 -344 -1371 -440 -2045 -29 -203 -31 -222 -45
-360 -4 -33 -8 -69 -10 -81 -2 -11 -6 -52 -10 -90 -3 -38 -8 -82 -10 -99 -2
-16 -7 -68 -10 -115 -4 -47 -8 -96 -10 -109 -3 -13 -7 -70 -10 -125 -4 -56 -8
-121 -10 -146 -28 -313 -28 -1455 0 -1845 2 -33 7 -98 10 -145 9 -137 15 -212
20 -255 2 -22 7 -71 10 -110 8 -95 15 -166 30 -290 3 -27 8 -68 10 -90 3 -22
7 -56 10 -75 2 -19 7 -53 10 -75 7 -57 44 -316 49 -340 2 -11 7 -42 10 -70 6
-46 78 -447 91 -505 3 -14 10 -52 16 -85 8 -47 65 -308 84 -385 2 -8 8 -37 15
-65 25 -112 104 -419 146 -570 351 -1248 841 -2401 1492 -3505 372 -631 800
-1245 1263 -1815 90 -110 168 -205 173 -211 6 -6 31 -35 56 -64 53 -63 223
-256 290 -329 341 -371 766 -794 1045 -1042 27 -24 70 -63 95 -85 272 -250
792 -662 1275 -1012 238 -172 846 -562 1115 -715 459 -260 870 -470 1355 -692
370 -169 864 -361 1305 -509 226 -76 256 -84 267 -70 14 19 30 91 39 167 3 29
7 66 9 82 32 221 26 1273 -9 1545 -26 198 -23 194 -166 247 -110 42 -371 147
-455 183 -22 10 -114 50 -205 90 -165 72 -584 277 -798 390 -395 208 -1010
587 -1352 833 -36 25 -92 66 -125 89 -90 65 -421 314 -435 328 -3 3 -50 41
-105 85 -55 44 -102 82 -105 85 -3 3 -32 27 -65 55 -33 27 -71 59 -85 71 -14
12 -63 55 -110 96 -285 245 -719 665 -955 922 -49 54 -106 115 -125 136 -19
20 -62 68 -95 106 -33 38 -62 71 -65 74 -5 4 -90 103 -164 190 -431 507 -897
1169 -1253 1780 -498 854 -893 1753 -1174 2670 -260 846 -445 1789 -514 2610
-3 36 -8 88 -10 115 -3 28 -8 93 -11 145 -3 52 -7 113 -9 135 -26 319 -26
1356 -1 1605 2 19 7 86 11 148 3 62 8 121 10 130 1 9 6 55 10 102 3 47 13 141
21 210 8 69 16 145 19 170 3 25 7 56 10 70 2 14 7 47 10 75 13 127 95 612 140
830 305 1489 857 2873 1670 4190 185 299 356 549 613 893 257 346 432 560 732
896 351 394 844 874 1239 1206 29 25 72 61 95 81 22 20 93 78 156 128 63 51
122 98 132 106 63 52 333 253 482 359 690 494 1487 949 2241 1280 66 29 140
62 165 73 98 44 487 196 695 271 648 233 1324 415 1990 536 105 19 204 37 220
40 64 12 504 75 570 82 39 3 79 8 90 10 10 2 51 6 90 10 38 3 78 8 87 9 9 2
59 7 110 10 51 4 103 8 115 10 12 2 78 7 145 10 68 4 137 8 153 10 214 24
1218 24 1510 0 22 -2 91 -6 154 -10 63 -3 128 -8 145 -10 17 -2 67 -6 111 -10
80 -6 133 -11 210 -20 22 -3 60 -7 85 -10 123 -14 305 -37 385 -50 50 -7 110
-17 135 -20 391 -54 1062 -202 1549 -341 484 -138 1169 -382 1515 -539 28 -13
83 -36 121 -53 168 -71 694 -328 885 -432 990 -540 1781 -1104 2620 -1869 116
-105 551 -538 701 -697 304 -322 679 -779 987 -1202 756 -1040 1341 -2170
1762 -3407 91 -269 247 -790 275 -922 2 -10 22 -92 44 -183 73 -302 153 -706
197 -995 2 -16 6 -41 9 -55 6 -32 12 -73 29 -200 6 -44 25 -200 32 -260 2 -25
6 -58 9 -75 4 -27 9 -73 20 -190 2 -22 7 -78 10 -125 3 -47 8 -98 10 -115 2
-16 7 -86 11 -155 3 -69 8 -141 9 -160 23 -243 23 -1233 1 -1430 -3 -19 -7
-84 -11 -145 -3 -60 -8 -123 -10 -140 -2 -16 -7 -64 -10 -105 -5 -76 -13 -160
-20 -215 -2 -16 -6 -57 -10 -90 -3 -33 -8 -73 -10 -90 -23 -184 -37 -284 -40
-305 -2 -14 -7 -43 -10 -65 -25 -172 -109 -631 -150 -815 -348 -1578 -951
-2997 -1849 -4355 -241 -364 -601 -845 -841 -1125 -22 -25 -62 -73 -90 -105
-27 -33 -68 -80 -90 -105 -22 -24 -44 -50 -50 -56 -164 -188 -275 -305 -544
-574 -373 -372 -634 -608 -986 -892 -88 -71 -169 -136 -180 -145 -121 -101
-583 -433 -845 -605 -751 -495 -1549 -908 -2385 -1235 -104 -40 -197 -83 -206
-93 -14 -16 -25 -57 -44 -170 -36 -204 -42 -1286 -9 -1610 9 -87 33 -193 46
-206 10 -9 33 -5 103 18 138 46 344 117 400 138 28 10 109 40 180 65 497 180
1207 497 1713 765 907 479 1740 1033 2517 1674 61 50 115 95 121 101 6 5 35
30 65 55 81 68 298 258 354 310 48 45 165 154 249 234 245 230 648 648 876
906 39 45 191 220 230 266 51 60 247 301 280 344 19 25 37 47 41 50 3 3 82
106 175 230 575 764 1042 1522 1454 2358 72 144 130 264 130 266 0 2 22 50 49
107 85 181 207 466 303 709 371 938 642 1902 817 2910 11 63 22 131 25 150 3
19 16 114 31 210 14 96 28 193 30 215 3 22 7 56 10 75 3 19 7 55 10 80 3 25 7
61 10 80 4 33 8 65 20 180 2 25 7 70 9 100 3 30 8 87 11 125 12 134 13 151 20
250 3 55 8 120 10 145 26 296 26 1418 0 1690 -2 19 -6 91 -10 160 -3 69 -8
139 -10 155 -2 17 -7 66 -10 110 -3 44 -8 98 -10 120 -4 41 -10 101 -20 210
-4 33 -10 94 -15 135 -5 41 -12 98 -15 125 -6 59 -24 193 -29 221 -2 10 -7 44
-11 74 -3 30 -15 107 -25 170 -11 63 -22 133 -25 155 -23 153 -100 552 -155
795 -235 1051 -601 2115 -1059 3074 -137 285 -369 736 -427 828 -13 21 -24 40
-24 43 0 9 -198 346 -308 525 -301 490 -635 966 -991 1415 -89 112 -378 464
-391 475 -3 3 -48 55 -100 115 -52 61 -120 137 -151 170 -30 33 -91 98 -134
145 -215 232 -602 614 -850 840 -38 35 -90 82 -115 104 -192 176 -554 477
-820 682 -1523 1176 -3266 2043 -5113 2544 -150 40 -408 105 -497 125 -8 2
-98 22 -200 44 -226 51 -241 54 -410 85 -205 39 -556 96 -680 111 -30 4 -62 9
-70 10 -25 5 -162 24 -210 29 -194 23 -317 36 -390 41 -47 4 -92 8 -100 10 -9
2 -63 6 -120 10 -58 3 -125 8 -150 10 -25 2 -99 7 -165 10 -66 4 -145 9 -175
11 -75 6 -1145 16 -1151 11z"/>
<path d="M21210 29957 c-3 -2 -77 -7 -165 -11 -88 -4 -178 -9 -200 -11 -47 -4
-151 -13 -255 -20 -41 -3 -109 -10 -150 -15 -41 -5 -100 -12 -130 -15 -339
-36 -885 -135 -1315 -240 -566 -139 -1261 -377 -1790 -615 -343 -154 -768
-372 -1040 -534 -66 -39 -124 -73 -130 -75 -21 -9 -407 -259 -540 -349 -683
-468 -1338 -1038 -1884 -1641 -42 -47 -83 -92 -91 -101 -143 -152 -484 -577
-682 -850 -616 -852 -1102 -1787 -1454 -2797 -67 -194 -93 -275 -139 -433 -7
-25 -24 -83 -38 -130 -98 -332 -227 -913 -272 -1225 -7 -46 -13 -81 -19 -110
-2 -11 -7 -45 -10 -76 -4 -31 -8 -65 -10 -75 -5 -27 -15 -101 -21 -159 -3 -27
-8 -66 -10 -85 -8 -56 -14 -121 -20 -185 -3 -33 -7 -82 -10 -110 -8 -82 -15
-181 -31 -475 -5 -95 -4 -726 1 -845 10 -235 16 -343 20 -380 2 -22 7 -76 10
-120 7 -99 34 -371 40 -405 3 -14 7 -50 10 -80 3 -30 8 -73 12 -95 3 -22 7
-49 8 -60 23 -187 93 -569 155 -850 147 -656 382 -1373 643 -1960 113 -253
142 -315 231 -492 167 -330 265 -507 447 -805 177 -291 472 -722 635 -928 208
-264 411 -512 433 -530 3 -3 21 -23 40 -45 19 -22 73 -83 121 -135 49 -52 100
-108 115 -125 197 -217 607 -607 891 -847 219 -184 411 -335 704 -549 126 -93
424 -290 635 -421 302 -188 782 -446 1076 -578 74 -34 152 -69 174 -79 37 -17
40 -18 43 -3 25 128 72 300 133 484 189 572 530 1153 933 1588 124 134 350
350 433 414 14 12 40 33 57 47 17 14 76 60 131 101 582 438 1298 736 2010 837
196 28 208 29 331 38 196 14 743 6 774 -12 3 -1 39 -6 80 -9 106 -10 342 -51
494 -87 375 -88 750 -231 1091 -417 128 -70 357 -209 415 -252 19 -14 89 -66
154 -116 336 -251 679 -603 923 -944 333 -467 563 -963 704 -1515 23 -91 46
-165 51 -165 27 0 548 252 747 362 87 48 274 152 293 163 9 6 43 25 75 44 536
311 1232 818 1683 1225 25 23 91 82 145 131 110 100 504 490 605 601 179 195
338 377 435 499 22 28 42 52 45 55 3 3 52 64 108 135 56 72 106 135 111 141
107 130 430 602 591 865 274 446 446 775 702 1338 230 509 461 1204 617 1861
115 482 217 1140 246 1580 4 52 8 105 10 117 19 120 28 1049 12 1298 -14 228
-17 280 -22 335 -3 30 -8 84 -10 120 -6 70 -10 107 -25 240 -6 47 -12 105 -15
130 -10 83 -16 124 -47 320 -16 107 -31 206 -33 218 -2 13 -8 45 -14 70 -6 26
-15 74 -21 107 -11 68 -10 61 -44 215 -131 599 -331 1251 -533 1740 -19 47
-38 94 -43 105 -8 20 -13 33 -70 165 -17 41 -52 117 -76 169 -24 51 -44 95
-44 98 0 12 -310 622 -330 648 -4 6 -25 42 -45 80 -195 358 -554 901 -855
1290 -138 178 -386 481 -430 525 -3 3 -41 46 -85 95 -312 352 -774 799 -1139
1100 -27 22 -56 47 -66 55 -10 8 -35 29 -56 45 -21 17 -61 48 -89 70 -27 22
-79 63 -115 90 -36 27 -67 52 -70 55 -5 6 -212 157 -294 214 -1274 894 -2690
1493 -4206 1780 -102 19 -205 38 -230 42 -25 3 -54 8 -65 10 -44 7 -373 53
-420 58 -27 4 -70 8 -95 11 -25 3 -61 7 -80 10 -19 2 -73 7 -120 10 -47 3 -92
8 -100 10 -8 2 -71 7 -140 10 -69 3 -138 8 -155 11 -39 6 -989 16 -995 11z
m-3992 -4527 c64 -28 135 -102 167 -175 30 -66 61 -215 65 -310 6 -132 5 -320
-3 -440 -5 -66 -10 -147 -12 -180 -2 -33 -7 -116 -12 -185 -8 -129 -10 -435
-2 -575 3 -68 -2 -174 -16 -325 -2 -19 -6 -73 -10 -120 -3 -47 -8 -96 -10
-110 -2 -14 -6 -56 -10 -95 -3 -38 -8 -90 -11 -115 -10 -94 -15 -146 -19 -180
-7 -56 -44 -323 -50 -350 -3 -14 -10 -52 -16 -85 -5 -33 -26 -123 -45 -200
-114 -461 -290 -786 -590 -1090 -275 -279 -560 -447 -850 -501 -105 -19 -535
-27 -654 -12 -367 47 -579 145 -800 368 -150 151 -252 300 -401 585 -119 227
-185 384 -219 516 -87 348 -169 802 -205 1139 -3 30 -7 73 -10 95 -4 42 -12
147 -20 255 -5 70 -12 428 -19 1000 -6 395 4 522 50 659 66 196 155 276 318
286 169 10 296 -64 367 -212 36 -76 37 -88 18 -268 -22 -221 -18 -1547 6
-1760 2 -22 7 -74 10 -115 3 -41 8 -88 10 -105 2 -16 6 -55 10 -85 30 -259
194 -863 312 -1150 103 -252 339 -414 755 -520 92 -24 104 -23 245 20 276 85
498 214 661 381 197 204 332 524 391 924 31 215 34 257 47 769 3 132 7 260 9
285 2 25 9 107 15 181 6 74 14 167 18 205 9 94 8 320 -3 545 -15 300 -11 668
9 784 17 101 43 175 74 209 69 77 309 109 430 57z m12260 0 c121 -52 199 -193
227 -412 10 -78 13 -377 5 -468 -5 -47 -11 -134 -14 -195 -3 -60 -9 -166 -13
-235 -8 -123 -9 -380 -2 -575 1 -55 0 -134 -4 -175 -4 -41 -10 -100 -12 -130
-6 -77 -14 -167 -20 -220 -2 -25 -7 -72 -10 -105 -3 -33 -8 -85 -11 -115 -3
-30 -9 -89 -14 -130 -5 -41 -12 -100 -15 -130 -5 -48 -15 -116 -31 -215 -30
-195 -102 -484 -160 -644 -51 -141 -155 -348 -230 -459 -128 -188 -307 -381
-468 -507 -21 -16 -44 -35 -51 -42 -41 -39 -244 -159 -335 -197 -192 -82 -306
-100 -620 -101 -235 0 -351 9 -477 36 -53 11 -103 22 -112 24 -46 9 -194 75
-265 118 -264 160 -442 380 -666 822 -103 202 -157 322 -177 389 -57 190 -159
694 -189 926 -2 19 -9 69 -14 110 -16 114 -18 130 -25 200 -4 36 -8 76 -11 89
-2 13 -6 67 -9 120 -4 53 -8 114 -11 136 -5 48 -19 896 -19 1175 0 107 3 229
7 270 16 161 80 333 151 409 46 49 125 81 212 86 184 11 314 -75 385 -254 18
-46 18 -56 6 -158 -19 -159 -21 -223 -21 -843 0 -772 15 -1092 65 -1380 5 -30
12 -71 15 -90 39 -233 214 -827 300 -1015 51 -111 164 -227 295 -305 159 -93
479 -200 558 -185 18 3 75 19 125 35 289 89 500 211 668 388 204 213 335 529
393 947 26 191 32 279 41 720 3 132 7 260 9 285 3 25 7 83 11 130 11 159 14
195 22 275 10 104 9 313 -2 545 -18 358 -11 729 15 820 5 17 9 31 8 33 -2 12
26 89 41 114 59 96 310 143 449 83z m-5130 -1274 c79 -41 134 -110 182 -230
l31 -76 -35 -142 c-19 -79 -64 -237 -99 -353 -96 -309 -134 -444 -153 -537
-10 -52 -64 -208 -144 -413 -152 -393 -212 -551 -235 -625 -37 -116 -238 -599
-341 -819 -24 -51 -44 -96 -44 -99 0 -2 -37 -80 -82 -171 -76 -154 -88 -172
-163 -246 -153 -153 -304 -249 -474 -301 -43 -14 -44 -13 -90 20 -100 74 -221
221 -331 405 -201 335 -379 782 -655 1641 -30 96 -58 182 -61 190 -3 8 -32
-39 -68 -110 -77 -153 -206 -401 -216 -415 -4 -5 -23 -39 -42 -75 -454 -836
-827 -1312 -1079 -1375 -20 -5 -37 2 -75 31 -96 72 -128 110 -393 462 -157
208 -161 215 -219 360 -33 81 -83 210 -112 287 -112 300 -235 608 -300 748
-84 184 -240 790 -281 1097 -26 196 24 317 158 380 83 39 236 33 336 -13 55
-25 130 -85 148 -119 8 -15 43 -190 75 -373 48 -278 93 -445 162 -595 11 -25
30 -76 41 -115 90 -307 147 -486 220 -684 74 -202 202 -458 261 -524 l26 -29
41 63 c79 125 143 237 318 558 50 91 100 168 137 210 99 111 177 250 368 661
92 198 259 413 425 550 89 73 254 150 273 127 17 -20 81 -163 134 -297 90
-229 129 -318 179 -405 82 -143 140 -308 253 -717 36 -130 77 -272 91 -315 65
-195 192 -509 291 -722 l45 -95 51 84 c72 121 133 236 158 300 77 194 135 383
210 680 38 155 123 417 220 680 80 219 121 346 191 590 78 273 194 641 215
681 22 44 114 138 161 166 97 57 203 64 291 19z"/>
<path d="M19845 9835 c-589 -100 -1081 -522 -1270 -1089 -57 -172 -78 -299
-79 -481 -1 -184 8 -303 29 -407 9 -40 18 -89 21 -108 11 -67 76 -276 121
-390 44 -111 143 -324 180 -385 10 -16 38 -63 62 -105 92 -156 287 -435 366
-524 6 -6 28 -33 50 -61 22 -27 43 -52 46 -55 3 -3 60 -66 126 -140 151 -168
399 -411 578 -565 38 -33 87 -76 110 -96 277 -243 843 -652 1205 -869 137 -83
185 -103 225 -97 74 12 566 330 945 611 123 91 438 341 450 356 3 4 39 35 80
71 355 302 721 689 960 1014 108 147 110 150 192 281 500 792 599 1581 276
2194 -307 582 -945 927 -1592 860 -471 -48 -884 -284 -1162 -665 -58 -79 -154
-242 -154 -262 0 -29 -17 -10 -48 53 -94 190 -264 395 -445 535 -295 229 -603
337 -972 344 -139 2 -194 -2 -300 -20z"/>
</g>
</svg>
